<svg width="36" height="37" viewBox="0 0 36 37" fill="none" xmlns="http://www.w3.org/2000/svg">
<mask id="path-1-outside-1_202_1675" maskUnits="userSpaceOnUse" x="8.80762" y="8.97217" width="20" height="21" fill="black">
<rect fill="white" x="8.80762" y="8.97217" width="20" height="21"/>
<path fill-rule="evenodd" clip-rule="evenodd" d="M18.0241 28.3328L26.4284 19.9286L27.1924 19.1646L26.6037 18.5758L26.4327 18.4048L18.0755 10.0476L17.3115 10.8117L25.0799 18.5801L9.34786 18.6243L9.34484 19.7018L25.1802 19.6573L17.2644 27.5731L18.0241 28.3328Z"/>
</mask>
<path fill-rule="evenodd" clip-rule="evenodd" d="M18.0241 28.3328L26.4284 19.9286L27.1924 19.1646L26.6037 18.5758L26.4327 18.4048L18.0755 10.0476L17.3115 10.8117L25.0799 18.5801L9.34786 18.6243L9.34484 19.7018L25.1802 19.6573L17.2644 27.5731L18.0241 28.3328Z" fill="white"/>
<path d="M18.0241 28.3328L17.6706 28.6864L18.0241 29.0399L18.3777 28.6864L18.0241 28.3328ZM26.4284 19.9286L26.0748 19.575L26.4284 19.9286ZM27.1924 19.1646L27.5459 19.5181L27.8995 19.1646L27.5459 18.811L27.1924 19.1646ZM26.6037 18.5758L26.9572 18.2223L26.6037 18.5758ZM26.4327 18.4048L26.0791 18.7584L26.4327 18.4048ZM18.0755 10.0476L18.429 9.69409L18.0755 9.34054L17.7219 9.69409L18.0755 10.0476ZM17.3115 10.8117L16.9579 10.4581L16.6043 10.8117L16.9579 11.1652L17.3115 10.8117ZM25.0799 18.5801L25.0813 19.0801L26.2836 19.0767L25.4335 18.2266L25.0799 18.5801ZM9.34786 18.6243L9.34646 18.1243L8.84926 18.1257L8.84787 18.6229L9.34786 18.6243ZM9.34484 19.7018L8.84484 19.7004L8.84343 20.2032L9.34624 20.2018L9.34484 19.7018ZM25.1802 19.6573L25.5337 20.0108L26.3907 19.1539L25.1788 19.1573L25.1802 19.6573ZM17.2644 27.5731L16.9108 27.2195L16.5573 27.5731L16.9108 27.9267L17.2644 27.5731ZM18.3777 28.6864L26.7819 20.2821L26.0748 19.575L17.6706 27.9793L18.3777 28.6864ZM26.7819 20.2821L27.5459 19.5181L26.8388 18.811L26.0748 19.575L26.7819 20.2821ZM27.5459 18.811L26.9572 18.2223L26.2501 18.9294L26.8388 19.5181L27.5459 18.811ZM26.9572 18.2223L26.7862 18.0513L26.0791 18.7584L26.2501 18.9294L26.9572 18.2223ZM26.7862 18.0513L18.429 9.69409L17.7219 10.4012L26.0791 18.7584L26.7862 18.0513ZM17.7219 9.69409L16.9579 10.4581L17.665 11.1652L18.429 10.4012L17.7219 9.69409ZM16.9579 11.1652L24.7263 18.9337L25.4335 18.2266L17.665 10.4581L16.9579 11.1652ZM25.0785 18.0801L9.34646 18.1243L9.34927 19.1243L25.0813 19.0801L25.0785 18.0801ZM8.84787 18.6229L8.84484 19.7004L9.84483 19.7032L9.84786 18.6257L8.84787 18.6229ZM9.34624 20.2018L25.1816 20.1573L25.1788 19.1573L9.34343 19.2018L9.34624 20.2018ZM24.8266 19.3037L16.9108 27.2195L17.6179 27.9267L25.5337 20.0108L24.8266 19.3037ZM16.9108 27.9267L17.6706 28.6864L18.3777 27.9793L17.6179 27.2195L16.9108 27.9267Z" fill="white" mask="url(#path-1-outside-1_202_1675)"/>
</svg>
