<svg width="20" height="21" viewBox="0 0 20 21" fill="none" xmlns="http://www.w3.org/2000/svg">
<mask id="path-1-outside-1_472_278" maskUnits="userSpaceOnUse" x="0.807617" y="0.485962" width="20" height="21" fill="black">
<rect fill="white" x="0.807617" y="0.485962" width="20" height="21"/>
<path fill-rule="evenodd" clip-rule="evenodd" d="M10.0241 19.8466L18.4284 11.4424L19.1924 10.6783L18.6037 10.0896L18.4327 9.91861L10.0755 1.56144L9.31146 2.32546L17.0799 10.0939L1.34786 10.1381L1.34484 11.2156L17.1802 11.1711L9.26436 19.0869L10.0241 19.8466Z"/>
</mask>
<path fill-rule="evenodd" clip-rule="evenodd" d="M10.0241 19.8466L18.4284 11.4424L19.1924 10.6783L18.6037 10.0896L18.4327 9.91861L10.0755 1.56144L9.31146 2.32546L17.0799 10.0939L1.34786 10.1381L1.34484 11.2156L17.1802 11.1711L9.26436 19.0869L10.0241 19.8466Z" fill="white"/>
<path d="M10.0241 19.8466L9.67055 20.2002L10.0241 20.5537L10.3777 20.2002L10.0241 19.8466ZM18.4284 11.4424L18.0748 11.0888L18.4284 11.4424ZM19.1924 10.6783L19.5459 11.0319L19.8995 10.6783L19.5459 10.3248L19.1924 10.6783ZM18.6037 10.0896L18.9572 9.73607L18.6037 10.0896ZM18.4327 9.91861L18.0791 10.2722L18.4327 9.91861ZM10.0755 1.56144L10.429 1.20788L10.0755 0.85433L9.72193 1.20788L10.0755 1.56144ZM9.31146 2.32546L8.9579 1.97191L8.60435 2.32546L8.9579 2.67901L9.31146 2.32546ZM17.0799 10.0939L17.0813 10.5939L18.2836 10.5905L17.4335 9.74035L17.0799 10.0939ZM1.34786 10.1381L1.34646 9.6381L0.849263 9.6395L0.847866 10.1367L1.34786 10.1381ZM1.34484 11.2156L0.844839 11.2142L0.843426 11.717L1.34624 11.7156L1.34484 11.2156ZM17.1802 11.1711L17.5337 11.5246L18.3907 10.6677L17.1788 10.6711L17.1802 11.1711ZM9.26436 19.0869L8.91081 18.7333L8.55726 19.0869L8.91081 19.4404L9.26436 19.0869ZM10.3777 20.2002L18.7819 11.7959L18.0748 11.0888L9.67055 19.4931L10.3777 20.2002ZM18.7819 11.7959L19.5459 11.0319L18.8388 10.3248L18.0748 11.0888L18.7819 11.7959ZM19.5459 10.3248L18.9572 9.73607L18.2501 10.4432L18.8388 11.0319L19.5459 10.3248ZM18.9572 9.73607L18.7862 9.56505L18.0791 10.2722L18.2501 10.4432L18.9572 9.73607ZM18.7862 9.56505L10.429 1.20788L9.72193 1.91499L18.0791 10.2722L18.7862 9.56505ZM9.72193 1.20788L8.9579 1.97191L9.66501 2.67901L10.429 1.91499L9.72193 1.20788ZM8.9579 2.67901L16.7263 10.4475L17.4335 9.74035L9.66501 1.97191L8.9579 2.67901ZM17.0785 9.59391L1.34646 9.6381L1.34927 10.6381L17.0813 10.5939L17.0785 9.59391ZM0.847866 10.1367L0.844839 11.2142L1.84483 11.217L1.84786 10.1395L0.847866 10.1367ZM1.34624 11.7156L17.1816 11.6711L17.1788 10.6711L1.34343 10.7156L1.34624 11.7156ZM16.8266 10.8175L8.91081 18.7333L9.61792 19.4404L17.5337 11.5246L16.8266 10.8175ZM8.91081 19.4404L9.67055 20.2002L10.3777 19.4931L9.61792 18.7333L8.91081 19.4404Z" fill="white" mask="url(#path-1-outside-1_472_278)"/>
</svg>
