<svg width="202" height="84" viewBox="0 0 202 84" fill="none" xmlns="http://www.w3.org/2000/svg">
<path d="M100.546 75.1374C100.546 76.5893 100.546 79.1302 97.8238 79.1302C95.4645 79.1302 95.1015 77.4967 95.1015 75.1374V67.5147C95.1015 66.6072 95.1015 64.0664 97.8238 64.0664C100.546 64.0664 100.546 65.8813 100.546 67.5147V75.1374ZM97.8238 60.0736C95.6459 60.0736 93.4681 60.618 92.0162 62.2515C90.3827 63.8849 90.0197 66.0628 90.0197 68.4222V74.4114C90.0197 75.3189 90.2012 77.3153 90.5642 78.9487C91.6531 82.76 95.4645 83.486 97.8238 83.486C99.2758 83.486 102.18 83.3045 103.995 81.3081C105.447 79.8561 105.991 77.8597 105.991 74.7744V69.3296C105.991 65.6998 105.265 63.8849 103.995 62.433C102.361 60.618 100.183 60.0736 97.8238 60.0736ZM113.432 71.689C113.069 71.689 112.525 71.689 112.162 71.689V64.9738C112.162 63.7034 112.888 63.1589 113.795 63.1589H115.973C118.151 63.1589 120.692 64.6108 120.692 67.5147C120.692 71.1445 117.243 71.689 113.432 71.689ZM121.055 62.07C119.784 61.1625 117.969 60.618 116.154 60.618H113.069C110.528 60.618 108.895 62.2515 108.895 64.9738V82.76H112.162V74.5929H115.066C117.243 74.5929 119.603 74.2299 121.599 72.778C122.507 72.052 123.959 70.6001 123.959 67.8777C123.959 65.5183 122.87 63.1589 121.055 62.07ZM198.552 65.8813C197.1 65.8813 196.011 64.7923 196.011 63.3404C196.011 61.8885 197.1 60.7995 198.552 60.7995C200.004 60.7995 201.093 62.07 201.093 63.5219C200.911 64.7924 199.822 65.8813 198.552 65.8813ZM198.552 59.8921C196.737 59.8921 195.103 61.344 195.103 63.1589C195.103 64.9738 196.555 66.4258 198.552 66.4258C200.367 66.4258 202 64.9738 202 63.1589C201.818 61.344 200.367 59.8921 198.552 59.8921ZM145.556 75.3189L149.004 64.0664C149.004 64.0664 149.004 63.8849 149.186 63.8849C149.367 63.8849 149.367 63.8849 149.367 64.0664L152.997 75.3189H145.556ZM147.371 60.4365L140.837 79.8561V79.6746H129.04V60.255H125.774V82.397H143.197L144.649 77.8597H153.905L155.538 82.397H158.986L151.182 60.255H147.371V60.4365ZM173.869 60.4365H165.157C161.527 60.4365 158.623 62.2514 158.623 65.6998C158.623 67.1517 158.986 68.2407 159.349 68.7852C160.075 70.0556 161.709 71.1446 163.161 71.689L167.335 73.5039C169.694 74.5929 170.239 75.5003 170.239 76.5893C170.239 78.9487 168.061 79.6746 166.246 79.6746H159.531C159.531 79.6746 159.894 82.5785 162.979 82.5785H166.246C167.517 82.5785 169.332 82.5785 171.146 81.1266C172.598 79.8561 173.324 78.5857 173.324 76.4078C173.324 74.7744 172.78 74.0484 172.598 73.5039C171.691 71.8705 169.876 71.1446 169.15 70.7816L164.613 68.7852C163.887 68.4222 162.072 67.6962 162.072 65.6998C162.072 63.7034 164.25 63.3404 165.702 63.3404H175.502H181.128V82.76H184.395V63.3404H191.11V60.618H175.321H173.869V60.4365ZM0.725952 66.2443C0.725952 70.6001 3.81129 72.052 7.25963 73.3224C10.708 74.5929 11.6154 74.9558 11.6154 76.5893C11.6154 78.5857 9.43753 78.9487 6.89665 78.9487H1.08893V82.9415H8.71156C9.80051 82.9415 11.7969 82.76 13.2488 82.034C16.5157 80.2191 16.5157 77.1338 16.5157 76.2263C16.5157 74.2299 15.4268 72.778 15.2453 72.415C14.3378 71.1445 12.7044 70.2371 11.2525 69.8741L8.34859 68.7852C6.89666 68.2407 5.44471 67.6962 5.44471 66.0628C5.44471 65.6998 5.80771 64.4294 8.34859 64.4294H16.6972H22.6864V82.5785H27.9496V64.4294H33.7574V60.4365H8.34859C3.44832 60.4365 0.725952 62.6145 0.725952 66.2443ZM40.1096 73.3224H50.4546V69.3296H40.1096V65.8813C40.1096 65.1553 40.6541 64.6109 41.3801 64.6109H50.6361V60.618H40.4726C37.5687 60.618 35.0279 62.07 35.0279 65.8813V82.76H50.6361V78.5857H40.1096V73.3224ZM53.9029 82.5785H58.8032V60.4365H53.9029V82.5785ZM198.37 63.1589H198.007V62.2515C198.007 62.2515 198.189 62.2515 198.37 62.2515C198.915 62.2515 199.096 62.433 199.096 62.796C199.096 62.9775 198.733 63.1589 198.37 63.1589ZM199.278 63.3404C199.641 63.1589 200.004 62.9774 200.004 62.433C200.004 62.07 199.822 61.8885 199.641 61.707C199.459 61.5255 199.096 61.5255 198.552 61.5255C198.007 61.5255 197.644 61.5255 197.281 61.707V64.9738H198.007V63.7034H198.37C198.733 63.7034 198.915 63.8849 199.096 64.2479C199.278 64.6109 199.278 64.9738 199.278 64.9738H200.004C200.004 64.7923 199.822 64.6109 199.822 64.2479C199.641 63.7034 199.459 63.5219 199.278 63.3404ZM78.4043 60.4365H73.504V82.5785H88.9308V78.4042H78.4043V60.4365ZM71.5076 60.4365H65.8814L58.8032 71.326L66.2443 82.5785H72.0521L64.4294 71.1445L71.5076 60.4365Z" fill="#B6B6B6"/>
<path d="M87.2974 0.544678H47.5507V9.98225H82.5786V19.2383H49.7286V47.5509H59.1662V28.6758H87.2974L92.0162 23.9571V5.26347L87.2974 0.544678ZM10.1635 19.4198V9.98225H40.1096V0.544678H5.44471L0.725952 5.26347V25.409L5.44471 28.8574H33.5759V38.1134H10.1635V33.3946H0.725952V42.8322L5.44471 47.5509H38.2947L43.0135 42.8322V23.9571L38.2947 19.2383H10.1635V19.4198Z" fill="#212121"/>
<path d="M87.1159 0H47.1878V9.43752H82.3971V18.8751H49.3657V47.3693H58.8032V28.3127H87.1159L91.8347 23.5939V4.90024L87.1159 0ZM9.43758 18.8751V9.43752H39.5652V0H4.71879L0 4.71879V25.0458L4.71879 28.4941H33.0315V37.9317H9.43758V33.2129H0V42.6505L4.71879 47.3693H37.7503L42.469 42.6505V23.5939L37.7503 18.8751H9.43758Z" fill="#B6B6B6"/>
<path d="M42.469 24.8643V23.5939L42.2876 23.4124L33.0315 32.8499V34.4833L42.469 24.8643Z" fill="#D2D2D2"/>
<path d="M41.3801 22.5048L40.6541 21.7788L33.0315 29.5829V31.2163L41.3801 22.5048Z" fill="#D2D2D2"/>
<path d="M39.9281 21.0532L39.0206 20.1458L31.035 28.3129H32.6684L39.9281 21.0532Z" fill="#D2D2D2"/>
<path d="M51.5436 18.8748H49.9102L49.3657 19.4192V21.0527L51.5436 18.8748Z" fill="#D2D2D2"/>
<path d="M54.629 18.8748H52.9956L49.3657 22.6861V24.3195L54.629 18.8748Z" fill="#D2D2D2"/>
<path d="M22.8679 18.8748H21.2345L11.9784 28.3123H13.6118L22.8679 18.8748Z" fill="#D2D2D2"/>
<path d="M25.9533 18.8748H24.5013L15.2453 28.3123H16.8787L25.9533 18.8748Z" fill="#D2D2D2"/>
<path d="M32.3055 18.8748H30.8535L21.5975 28.3123H23.2309L32.3055 18.8748Z" fill="#D2D2D2"/>
<path d="M35.5723 18.8748H33.9389L24.6828 28.3123H26.3162L35.5723 18.8748Z" fill="#D2D2D2"/>
<path d="M38.2947 19.4192L37.7503 18.8748H37.2058L27.9497 28.3123H29.4016L38.2947 19.4192Z" fill="#D2D2D2"/>
<path d="M29.2201 18.8748H27.5867L18.3306 28.3123H19.964L29.2201 18.8748Z" fill="#D2D2D2"/>
<path d="M55.8994 9.43752H57.3513L66.6074 0H64.974L55.8994 9.43752Z" fill="#D2D2D2"/>
<path d="M58.9847 9.43752H60.6181L69.6927 0H68.2408L58.9847 9.43752Z" fill="#D2D2D2"/>
<path d="M52.6325 9.43752H54.2659L63.3405 0H61.8886L52.6325 9.43752Z" fill="#D2D2D2"/>
<path d="M57.8958 18.8748H56.2624L49.3657 25.9529V27.5863L57.8958 18.8748Z" fill="#D2D2D2"/>
<path d="M62.2516 9.43752H63.7035L72.9596 0H71.3262L62.2516 9.43752Z" fill="#D2D2D2"/>
<path d="M64.248 18.8748H62.6146L49.3657 32.4866V34.12L64.248 18.8748Z" fill="#D2D2D2"/>
<path d="M60.9812 18.8748H59.3478L49.3657 29.2198V30.8532L60.9812 18.8748Z" fill="#D2D2D2"/>
<path d="M68.6038 9.43752H70.0557L79.3118 0H77.6784L68.6038 9.43752Z" fill="#D2D2D2"/>
<path d="M65.3369 9.43752H66.9703L76.0449 0H74.593L65.3369 9.43752Z" fill="#D2D2D2"/>
<path d="M91.8347 13.2486V11.6152L75.6819 28.3125H77.1339L91.8347 13.2486Z" fill="#D2D2D2"/>
<path d="M9.43758 9.80053V9.43752H9.80055L19.0566 0H17.4232L0 17.9676V19.6011L9.43758 9.80053Z" fill="#D2D2D2"/>
<path d="M5.62625 28.3123H7.25966L16.5157 18.8748H14.8823L5.62625 28.3123Z" fill="#D2D2D2"/>
<path d="M49.5472 9.43752H50.9991L60.2552 0H58.6218L49.5472 9.43752Z" fill="#D2D2D2"/>
<path d="M82.3971 17.9679V18.8754H81.6711L72.415 28.3129H74.0485L91.8346 9.98229V8.34888L82.3971 17.9679Z" fill="#D2D2D2"/>
<path d="M12.7044 0H11.071L0 11.4339V13.0674L12.7044 0Z" fill="#D2D2D2"/>
<path d="M9.43758 14.7009L0 24.5015V25.0459L0.54448 25.4089L9.43758 16.3343V14.7009Z" fill="#D2D2D2"/>
<path d="M12.5229 37.7502L3.9928 46.4619L4.71875 47.1878H4.90026L13.9748 37.7502H12.5229Z" fill="#D2D2D2"/>
<path d="M59.7107 28.3123H61.3441L70.4187 18.8748H68.9667L59.7107 28.3123Z" fill="#D2D2D2"/>
<path d="M6.3522 0H4.71879L0 4.90024V6.5337L6.3522 0Z" fill="#D2D2D2"/>
<path d="M9.43758 0H7.98564L0 8.16711V9.80053L9.43758 0Z" fill="#D2D2D2"/>
<path d="M15.7898 0H14.3378L0 14.7008V16.3342L15.7898 0Z" fill="#D2D2D2"/>
<path d="M71.6891 9.43752H73.3225L82.3971 0H80.9452L71.6891 9.43752Z" fill="#D2D2D2"/>
<path d="M78.0413 9.43752H79.6747L88.0233 0.725955L87.1159 0L78.0413 9.43752Z" fill="#D2D2D2"/>
<path d="M74.956 9.43752H76.4079L85.664 0H84.0306L74.956 9.43752Z" fill="#D2D2D2"/>
<path d="M19.7826 18.8748H18.1491L8.8931 28.3123H10.5265L19.7826 18.8748Z" fill="#D2D2D2"/>
<path d="M82.3971 11.434V13.0674L91.1087 3.9928L90.3828 3.26685L82.3971 11.434Z" fill="#D2D2D2"/>
<path d="M80.0378 18.8748H78.4043L69.3298 28.3123H70.7817L80.0378 18.8748Z" fill="#D2D2D2"/>
<path d="M82.3971 14.7009V16.3343L91.8347 6.7152V5.08179L82.3971 14.7009Z" fill="#D2D2D2"/>
<path d="M81.1267 9.43717H82.3971V9.80017L89.4753 2.35901L88.7493 1.63306L81.1267 9.43717Z" fill="#D2D2D2"/>
<path d="M76.7709 18.8748H75.3189L66.0629 28.3123H67.6963L76.7709 18.8748Z" fill="#D2D2D2"/>
<path d="M73.6856 18.8748H72.0521L62.9776 28.3123H64.4295L73.6856 18.8748Z" fill="#D2D2D2"/>
<path d="M67.3334 18.8748H65.7L49.3657 35.7534V37.3869L67.3334 18.8748Z" fill="#D2D2D2"/>
<path d="M42.469 31.3978V29.7644L25.4088 47.1876H27.0422L42.469 31.3978Z" fill="#D2D2D2"/>
<path d="M42.469 41.1986V39.5652L35.0279 47.1878H36.4798L42.469 41.1986Z" fill="#D2D2D2"/>
<path d="M42.469 37.9318V36.2983L31.761 47.1878H33.3944L42.469 37.9318Z" fill="#D2D2D2"/>
<path d="M42.469 28.1315V26.498L33.0315 36.1171V37.7505H31.3981L22.3235 47.1881H23.9569L42.469 28.1315Z" fill="#D2D2D2"/>
<path d="M42.469 34.6647V33.0312L28.6757 47.1876H30.3091L42.469 34.6647Z" fill="#D2D2D2"/>
<path d="M20.3271 37.7502H18.8751L9.61905 47.1878H11.2525L20.3271 37.7502Z" fill="#D2D2D2"/>
<path d="M23.5939 37.7502H21.9605L12.7044 47.1878H14.3378L23.5939 37.7502Z" fill="#D2D2D2"/>
<path d="M26.6793 37.7502H25.0458L15.9713 47.1878H17.6047L26.6793 37.7502Z" fill="#D2D2D2"/>
<path d="M29.9461 37.7502H28.3127L19.0566 47.1878H20.69L29.9461 37.7502Z" fill="#D2D2D2"/>
<path d="M91.8346 16.5158V14.8823L78.7672 28.3127H80.4007L91.8346 16.5158Z" fill="#D2D2D2"/>
<path d="M17.2417 37.7502H15.6083L6.3522 47.1878H7.98564L17.2417 37.7502Z" fill="#D2D2D2"/>
<path d="M91.8347 19.7826V18.1492L82.0341 28.3127H83.4861L91.8347 19.7826Z" fill="#D2D2D2"/>
<path d="M58.8032 30.8539V29.2205L49.3657 39.021V40.6544L58.8032 30.8539Z" fill="#D2D2D2"/>
<path d="M91.8347 23.0494V21.416L85.1195 28.3127H86.753L91.8347 23.0494Z" fill="#D2D2D2"/>
<path d="M47.1878 8.53006V9.43752H47.9137L57.1698 0H55.5364L47.1878 8.53006Z" fill="#D2D2D2"/>
<path d="M58.8032 37.3871V35.7537L49.3657 45.5542V47.1877L58.8032 37.3871Z" fill="#D2D2D2"/>
<path d="M58.8032 34.1202V32.4868L49.3657 42.2873V43.9208L58.8032 34.1202Z" fill="#D2D2D2"/>
<path d="M58.8032 40.6539V39.0205L50.8176 47.1876H52.451L58.8032 40.6539Z" fill="#D2D2D2"/>
<path d="M58.8032 43.921V42.2876L54.0845 47.1879H55.5364L58.8032 43.921Z" fill="#D2D2D2"/>
<path d="M58.8032 47.1879V45.5544L57.1698 47.1879H58.8032Z" fill="#D2D2D2"/>
<path d="M30.4906 9.43752H32.124L39.5651 1.63341V0L30.4906 9.43752Z" fill="#D2D2D2"/>
<path d="M17.7862 9.43752H19.4196L28.4942 0H27.0422L17.7862 9.43752Z" fill="#D2D2D2"/>
<path d="M27.2237 9.43752H28.8571L38.1132 0H36.4798L27.2237 9.43752Z" fill="#D2D2D2"/>
<path d="M24.1384 9.43752H25.7718L34.8464 0H33.213L24.1384 9.43752Z" fill="#D2D2D2"/>
<path d="M10.8895 37.7501H9.43756V37.5686L2.35938 45.0098L3.08536 45.7357L10.8895 37.7501Z" fill="#D2D2D2"/>
<path d="M33.5759 9.43754H35.2093L39.5652 4.90026V3.26685L33.5759 9.43754Z" fill="#D2D2D2"/>
<path d="M47.1878 1.99642V3.62983L50.8176 0H49.1842L47.1878 1.99642Z" fill="#D2D2D2"/>
<path d="M47.1878 5.26324V6.89665L53.903 0H52.2696L47.1878 5.26324Z" fill="#D2D2D2"/>
<path d="M38.4762 9.43775L39.5651 8.16735V6.53394L36.8428 9.43775H38.4762Z" fill="#D2D2D2"/>
<path d="M20.8715 9.43752H22.505L31.761 0H30.1276L20.8715 9.43752Z" fill="#D2D2D2"/>
<path d="M9.07457 33.0312H7.44116L0 40.8354V42.4688L9.07457 33.0312Z" fill="#D2D2D2"/>
<path d="M2.72237 33.0312H1.08896L0 34.3017V35.9351L2.72237 33.0312Z" fill="#D2D2D2"/>
<path d="M5.80775 33.0312H4.35581L0 37.5685V39.202L5.80775 33.0312Z" fill="#D2D2D2"/>
<path d="M9.43755 35.9352V34.3018L0.725952 43.3763L1.45191 44.1023L9.43755 35.9352Z" fill="#D2D2D2"/>
<path d="M10.1635 18.875H9.43756V17.9675L1.63342 26.1346L2.54088 26.8606L10.1635 18.875Z" fill="#D2D2D2"/>
<path d="M13.4304 18.8748H11.797L3.44836 27.4049L4.35582 28.1308L13.4304 18.8748Z" fill="#D2D2D2"/>
<path d="M11.4339 9.43752H13.0674L22.1419 0H20.69L11.4339 9.43752Z" fill="#D2D2D2"/>
<path d="M9.43758 13.0675V11.4341L0 21.2346V22.8681L9.43758 13.0675Z" fill="#D2D2D2"/>
<path d="M14.5193 9.43752H16.1528L25.4088 0H23.7754L14.5193 9.43752Z" fill="#D2D2D2"/>
</svg>
