<svg width="145" height="71" viewBox="0 0 145 71" fill="none" xmlns="http://www.w3.org/2000/svg">
<path fill-rule="evenodd" clip-rule="evenodd" d="M145 10H0V59H145V10ZM11.8372 53H7V16H11.8372V31.7809H30.6348V16H35.472V53H30.6348V35.9739H11.8372V53ZM55.0436 20.0659H42.7374V16H72.1368V20.0659H59.9059V53H55.0436V20.0659ZM76.3946 20.0659H88.7007V53H93.563V20.0659H105.794V16H76.3946V20.0659ZM117.972 53H113.135V16H127.596C131.456 16 134.322 17.0588 136.193 19.1765C138.064 21.2772 139 24.098 139 27.6387C139 31.0609 138.073 33.8647 136.218 36.0501C134.363 38.2186 131.473 39.3029 127.546 39.3029H117.972V53ZM117.972 19.888V35.5673H126.819C129.526 35.5673 131.423 34.8219 132.509 33.331C133.611 31.8402 134.163 29.9682 134.163 27.715C134.163 25.4109 133.611 23.5304 132.509 22.0735C131.423 20.6165 129.526 19.888 126.819 19.888H117.972Z" fill="white"/>
<path d="M0 70.9011H0.737103L2.06194 67.3687C2.09441 67.2852 2.12255 67.2049 2.14637 67.128C2.17018 67.0488 2.19074 66.9697 2.20806 66.8905H2.24053C2.26002 66.9697 2.28058 67.0488 2.30223 67.128C2.32604 67.2049 2.35418 67.2852 2.38666 67.3687L3.705 70.9011H4.51029L2.6237 66.0693H1.8801L0 70.9011ZM0.866989 69.717H3.61083L3.39652 69.1135H1.0813L0.866989 69.717Z" fill="white"/>
<path d="M13.2012 68.6319C13.2012 69.3993 13.4015 69.9864 13.8019 70.3931C14.2024 70.7977 14.7436 71 15.4255 71C15.8715 71 16.2514 70.9318 16.5653 70.7955C16.8792 70.6592 17.1162 70.5119 17.2764 70.3536V68.4571H15.3573V69.0574H16.5393V70.0831C16.3834 70.1865 16.2178 70.2612 16.0425 70.3074C15.8693 70.3536 15.6636 70.3766 15.4255 70.3766C14.9666 70.3766 14.6094 70.2315 14.354 69.9413C14.0985 69.6511 13.9708 69.2256 13.9708 68.6649V68.3318C13.9708 67.7755 14.0964 67.3522 14.3475 67.062C14.5986 66.7696 14.9265 66.6234 15.3314 66.6234C15.7015 66.6234 15.9884 66.7091 16.1919 66.8806C16.3975 67.0499 16.5047 67.2555 16.5133 67.4974V67.5303H17.2732L17.2699 67.4908C17.2418 67.051 17.0599 66.6926 16.7244 66.4156C16.3888 66.1385 15.9288 66 15.3443 66C14.7144 66 14.1992 66.2034 13.7987 66.6102C13.4004 67.0147 13.2012 67.6007 13.2012 68.3681V68.6319Z" fill="white"/>
<path d="M26.5421 70.9011H29.7762V70.2942H27.2954V68.7276H29.4288V68.124H27.2954V66.7091H29.7438V66.0989H26.5421V70.9011Z" fill="white"/>
<path d="M38.9088 70.9011H39.6069V67.6788C39.6069 67.6106 39.6048 67.5358 39.6004 67.4545C39.5983 67.3709 39.5961 67.2951 39.5939 67.2269H39.6199C39.6459 67.2841 39.6784 67.35 39.7173 67.4248C39.7585 67.4996 39.8028 67.5732 39.8505 67.6458L41.9903 70.9011H42.7891V66.0989H42.0877V69.3377C42.0877 69.4081 42.0888 69.4828 42.091 69.562C42.0932 69.6412 42.0964 69.7148 42.1007 69.783H42.0748C42.0488 69.7236 42.0152 69.6588 41.9741 69.5884C41.9351 69.5158 41.8929 69.4455 41.8475 69.3773L39.6978 66.0989H38.9088V70.9011Z" fill="white"/>
<path d="M52.0613 68.6319C52.0613 69.4059 52.2605 69.9941 52.6588 70.3964C53.0571 70.7988 53.5658 71 54.1849 71C54.7911 71 55.2576 70.8461 55.5845 70.5383C55.9135 70.2282 56.0964 69.838 56.1332 69.3674L56.1365 69.3146H55.3734L55.3702 69.3674C55.3463 69.6577 55.2392 69.8984 55.0487 70.0897C54.8603 70.281 54.5724 70.3766 54.1849 70.3766C53.7823 70.3766 53.4565 70.2326 53.2076 69.9446C52.9586 69.6566 52.8341 69.2311 52.8341 68.6682V68.3318C52.8341 67.7513 52.9597 67.3215 53.2108 67.0422C53.4619 66.763 53.7855 66.6234 54.1817 66.6234C54.5627 66.6234 54.8539 66.7135 55.0552 66.8938C55.2565 67.0719 55.3626 67.3171 55.3734 67.6293V67.6854H56.1365L56.1332 67.6359C56.1159 67.1456 55.9352 66.7509 55.591 66.4518C55.2468 66.1506 54.7781 66 54.1849 66C53.568 66 53.0593 66.2034 52.6588 66.6102C52.2605 67.0147 52.0613 67.6007 52.0613 68.3681V68.6319Z" fill="white"/>
<path d="M66.5127 70.9011H67.2693V69.1266L69 66.0989H68.2045L67.0972 68.0712C67.0604 68.135 67.0268 68.1966 66.9965 68.2559C66.9684 68.3153 66.9424 68.3769 66.9186 68.4406H66.8959C66.872 68.3769 66.845 68.3153 66.8147 68.2559C66.7865 68.1966 66.7541 68.135 66.7173 68.0712L65.6295 66.0989H64.7722L66.5127 69.1398V70.9011Z" fill="white"/>
<path d="M0 4.90106H0.756658V2.73087H3.15653V4.90106H3.91319V0.0989446H3.15653V2.12071H0.756658V0.0989446H0V4.90106Z" fill="white"/>
<path d="M13.3778 4.90106H14.1378V0.0989446H13.3778V4.90106Z" fill="white"/>
<path d="M23.4173 2.63193C23.4173 3.3993 23.6176 3.98637 24.0181 4.39314C24.4186 4.79771 24.9598 5 25.6418 5C26.0878 5 26.4678 4.93184 26.7817 4.79551C27.0956 4.65919 27.3327 4.51187 27.4929 4.35356V2.45712H25.5736V3.05739H26.7557V4.08311C26.5998 4.18646 26.4342 4.26121 26.2588 4.30739C26.0856 4.35356 25.88 4.37665 25.6418 4.37665C25.1828 4.37665 24.8256 4.23153 24.5702 3.94129C24.3147 3.65106 24.187 3.22559 24.187 2.66491V2.33179C24.187 1.77551 24.3125 1.35224 24.5637 1.06201C24.8148 0.769569 25.1428 0.623351 25.5476 0.623351C25.9178 0.623351 26.2047 0.709103 26.4082 0.880607C26.6139 1.04991 26.7211 1.2555 26.7297 1.49736V1.53034H27.4896L27.4864 1.49077C27.4582 1.05101 27.2764 0.692612 26.9408 0.415567C26.6052 0.138522 26.1452 0 25.5606 0C24.9306 0 24.4154 0.203386 24.0148 0.610158C23.6165 1.01473 23.4173 1.6007 23.4173 2.36807V2.63193Z" fill="white"/>
<path d="M36.7594 4.90106H37.5161V2.73087H39.916V4.90106H40.6726V0.0989446H39.916V2.12071H37.5161V0.0989446H36.7594V4.90106Z" fill="white"/>
<path d="M50.9524 4.92744H51.7383L52.6378 1.44459C52.6573 1.36983 52.6746 1.29398 52.6898 1.21702C52.7049 1.14006 52.7179 1.0653 52.7287 0.992744H52.7515C52.7623 1.0653 52.7753 1.14006 52.7905 1.21702C52.8056 1.29398 52.8229 1.36983 52.8424 1.44459L53.7582 4.92744H54.5473L55.7651 0.0989446H55.0507L54.2551 3.5785C54.2377 3.65325 54.2237 3.71812 54.2128 3.77309C54.2042 3.82586 54.1955 3.88852 54.1869 3.96108H54.1609C54.1501 3.88852 54.1403 3.82586 54.1317 3.77309C54.123 3.71812 54.1089 3.65325 54.0894 3.5785L53.1801 0.0989446H52.3683L51.485 3.58179C51.4655 3.65655 51.4503 3.72032 51.4395 3.77309C51.4308 3.82586 51.4222 3.88852 51.4135 3.96108H51.3843C51.3756 3.88852 51.3659 3.82586 51.3551 3.77309C51.3464 3.72032 51.3323 3.65655 51.3129 3.58179L50.4912 0.0989446H49.7281L50.9524 4.92744Z" fill="white"/>
<path d="M64.1029 4.90106H64.8401L66.1651 1.36873C66.1975 1.28518 66.2257 1.20493 66.2495 1.12797C66.2733 1.04881 66.2939 0.969657 66.3112 0.890501H66.3437C66.3631 0.969657 66.3837 1.04881 66.4054 1.12797C66.4292 1.20493 66.4573 1.28518 66.4898 1.36873L67.8083 4.90106H68.6136L66.7269 0.0692612H65.9832L64.1029 4.90106ZM64.97 3.71702H67.7141L67.4998 3.11346H65.1843L64.97 3.71702Z" fill="white"/>
<path d="M78.5914 4.90106H79.348V3.12665L81.0789 0.0989446H80.2833L79.1759 2.07124C79.1391 2.135 79.1056 2.19657 79.0753 2.25594C79.0471 2.3153 79.0211 2.37687 78.9973 2.44063H78.9746C78.9508 2.37687 78.9237 2.3153 78.8934 2.25594C78.8653 2.19657 78.8328 2.135 78.796 2.07124L77.7081 0.0989446H76.8508L78.5914 3.13984V4.90106Z" fill="white"/>
<path d="M89.5759 0.709103H91.1541V4.90106H91.9108V0.709103H93.4858V0.0989446H89.5759V0.709103Z" fill="white"/>
<path d="M102.256 2.63193C102.256 3.3993 102.456 3.98637 102.856 4.39314C103.259 4.79771 103.775 5 104.405 5C105.035 5 105.552 4.79771 105.954 4.39314C106.357 3.98637 106.558 3.3993 106.558 2.63193V2.36807C106.558 1.6007 106.357 1.01473 105.954 0.610158C105.552 0.203386 105.035 0 104.405 0C103.775 0 103.259 0.203386 102.856 0.610158C102.456 1.01473 102.256 1.6007 102.256 2.36807V2.63193ZM103.025 2.66161V2.33839C103.025 1.7777 103.151 1.35224 103.402 1.06201C103.655 0.769569 103.99 0.623351 104.405 0.623351C104.821 0.623351 105.155 0.769569 105.409 1.06201C105.662 1.35224 105.789 1.7777 105.789 2.33839V2.66161C105.789 3.2223 105.662 3.64886 105.409 3.94129C105.155 4.23153 104.821 4.37665 104.405 4.37665C103.99 4.37665 103.655 4.23153 103.402 3.94129C103.151 3.64886 103.025 3.2223 103.025 2.66161Z" fill="white"/>
<path d="M115.273 0.709103H116.851V4.90106H117.608V0.709103H119.183V0.0989446H115.273V0.709103Z" fill="white"/>
<path d="M127.953 2.63193C127.953 3.3993 128.153 3.98637 128.553 4.39314C128.956 4.79771 129.472 5 130.102 5C130.732 5 131.249 4.79771 131.651 4.39314C132.054 3.98637 132.255 3.3993 132.255 2.63193V2.36807C132.255 1.6007 132.054 1.01473 131.651 0.610158C131.249 0.203386 130.732 0 130.102 0C129.472 0 128.956 0.203386 128.553 0.610158C128.153 1.01473 127.953 1.6007 127.953 2.36807V2.63193ZM128.722 2.66161V2.33839C128.722 1.7777 128.848 1.35224 129.099 1.06201C129.352 0.769569 129.687 0.623351 130.102 0.623351C130.518 0.623351 130.853 0.769569 131.106 1.06201C131.359 1.35224 131.486 1.7777 131.486 2.33839V2.66161C131.486 3.2223 131.359 3.64886 131.106 3.94129C130.853 4.23153 130.518 4.37665 130.102 4.37665C129.687 4.37665 129.352 4.23153 129.099 3.94129C128.848 3.64886 128.722 3.2223 128.722 2.66161Z" fill="white"/>
<path d="M141.528 4.90106H142.285V3.09697H143.263C143.821 3.09697 144.25 2.96284 144.549 2.69459C144.85 2.42634 145 2.05915 145 1.59301C145 1.12247 144.85 0.756376 144.549 0.494723C144.25 0.230871 143.822 0.0989446 143.266 0.0989446H141.528V4.90106ZM142.285 2.4934V0.702507H143.233C143.606 0.702507 143.867 0.783861 144.016 0.94657C144.168 1.10928 144.243 1.32476 144.243 1.59301C144.243 1.86126 144.168 2.07894 144.016 2.24604C143.867 2.41095 143.606 2.4934 143.233 2.4934H142.285Z" fill="white"/>
</svg>
